<mxfile host="Electron" modified="2023-06-12T17:15:46.607Z" agent="Mozilla/5.0 (Windows NT 10.0; Win64; x64) AppleWebKit/537.36 (KHTML, like Gecko) draw.io/21.2.8 Chrome/112.0.5615.165 Electron/24.2.0 Safari/537.36" etag="hd89UBzWgCoprn2NbfcQ" version="21.2.8" type="device">
  <diagram name="Page-1" id="m1ZXuR15QqlD00_VXt2B">
    <mxGraphModel dx="1405" dy="994" grid="1" gridSize="10" guides="1" tooltips="1" connect="1" arrows="1" fold="1" page="1" pageScale="1" pageWidth="850" pageHeight="1100" math="0" shadow="0">
      <root>
        <mxCell id="0" />
        <mxCell id="1" parent="0" />
        <mxCell id="2bNUJM0Tw6NKzzx5I3rB-2" value="Reader" style="rounded=0;whiteSpace=wrap;html=1;" vertex="1" parent="1">
          <mxGeometry x="290" y="850" width="120" height="60" as="geometry" />
        </mxCell>
        <mxCell id="2bNUJM0Tw6NKzzx5I3rB-3" value="Category" style="rounded=0;whiteSpace=wrap;html=1;" vertex="1" parent="1">
          <mxGeometry x="510" y="510" width="120" height="60" as="geometry" />
        </mxCell>
        <mxCell id="2bNUJM0Tw6NKzzx5I3rB-4" value="Author" style="rounded=0;whiteSpace=wrap;html=1;" vertex="1" parent="1">
          <mxGeometry x="650" y="300" width="120" height="60" as="geometry" />
        </mxCell>
        <mxCell id="2bNUJM0Tw6NKzzx5I3rB-5" value="Publisher" style="rounded=0;whiteSpace=wrap;html=1;" vertex="1" parent="1">
          <mxGeometry x="660" y="90" width="120" height="60" as="geometry" />
        </mxCell>
        <mxCell id="2bNUJM0Tw6NKzzx5I3rB-6" value="Copy" style="rounded=0;whiteSpace=wrap;html=1;" vertex="1" parent="1">
          <mxGeometry x="-70" y="680" width="120" height="60" as="geometry" />
        </mxCell>
        <mxCell id="2bNUJM0Tw6NKzzx5I3rB-7" value="Book" style="rounded=0;whiteSpace=wrap;html=1;" vertex="1" parent="1">
          <mxGeometry x="10" y="230" width="120" height="60" as="geometry" />
        </mxCell>
        <mxCell id="2bNUJM0Tw6NKzzx5I3rB-9" value="&lt;u&gt;ISBN&lt;/u&gt;" style="ellipse;whiteSpace=wrap;html=1;" vertex="1" parent="1">
          <mxGeometry x="-70" y="160" width="60" height="40" as="geometry" />
        </mxCell>
        <mxCell id="2bNUJM0Tw6NKzzx5I3rB-10" value="publication_year" style="ellipse;whiteSpace=wrap;html=1;" vertex="1" parent="1">
          <mxGeometry x="-20" y="130" width="120" height="40" as="geometry" />
        </mxCell>
        <mxCell id="2bNUJM0Tw6NKzzx5I3rB-12" value="title" style="ellipse;whiteSpace=wrap;html=1;" vertex="1" parent="1">
          <mxGeometry x="10" y="350" width="60" height="40" as="geometry" />
        </mxCell>
        <mxCell id="2bNUJM0Tw6NKzzx5I3rB-13" value="author" style="ellipse;whiteSpace=wrap;html=1;" vertex="1" parent="1">
          <mxGeometry x="-110" y="210" width="60" height="40" as="geometry" />
        </mxCell>
        <mxCell id="2bNUJM0Tw6NKzzx5I3rB-14" value="number_of_pages" style="ellipse;whiteSpace=wrap;html=1;" vertex="1" parent="1">
          <mxGeometry x="-110" y="270" width="100" height="40" as="geometry" />
        </mxCell>
        <mxCell id="2bNUJM0Tw6NKzzx5I3rB-15" value="publisher" style="ellipse;whiteSpace=wrap;html=1;" vertex="1" parent="1">
          <mxGeometry x="-60" y="330" width="60" height="40" as="geometry" />
        </mxCell>
        <mxCell id="2bNUJM0Tw6NKzzx5I3rB-16" value="&lt;u&gt;Copy number&lt;/u&gt;" style="ellipse;whiteSpace=wrap;html=1;" vertex="1" parent="1">
          <mxGeometry x="-200" y="640" width="100" height="40" as="geometry" />
        </mxCell>
        <mxCell id="2bNUJM0Tw6NKzzx5I3rB-17" value="Location in a shelf" style="ellipse;whiteSpace=wrap;html=1;" vertex="1" parent="1">
          <mxGeometry x="-140" y="810" width="120" height="40" as="geometry" />
        </mxCell>
        <mxCell id="2bNUJM0Tw6NKzzx5I3rB-19" value="&lt;span style=&quot;border-bottom: 1px dotted&quot;&gt;ISBN&lt;/span&gt;" style="ellipse;whiteSpace=wrap;html=1;align=center;" vertex="1" parent="1">
          <mxGeometry x="-200" y="740" width="100" height="40" as="geometry" />
        </mxCell>
        <mxCell id="2bNUJM0Tw6NKzzx5I3rB-21" value="name" style="ellipse;whiteSpace=wrap;html=1;" vertex="1" parent="1">
          <mxGeometry x="730" y="20" width="60" height="40" as="geometry" />
        </mxCell>
        <mxCell id="2bNUJM0Tw6NKzzx5I3rB-22" value="location" style="ellipse;whiteSpace=wrap;html=1;" vertex="1" parent="1">
          <mxGeometry x="800" y="50" width="60" height="40" as="geometry" />
        </mxCell>
        <mxCell id="2bNUJM0Tw6NKzzx5I3rB-23" value="id" style="ellipse;whiteSpace=wrap;html=1;align=center;fontStyle=4;" vertex="1" parent="1">
          <mxGeometry x="820" y="105" width="70" height="30" as="geometry" />
        </mxCell>
        <mxCell id="2bNUJM0Tw6NKzzx5I3rB-24" value="id" style="ellipse;whiteSpace=wrap;html=1;align=center;fontStyle=4;" vertex="1" parent="1">
          <mxGeometry x="825" y="250" width="50" height="40" as="geometry" />
        </mxCell>
        <mxCell id="2bNUJM0Tw6NKzzx5I3rB-25" value="first_name" style="ellipse;whiteSpace=wrap;html=1;align=center;" vertex="1" parent="1">
          <mxGeometry x="760" y="420" width="80" height="40" as="geometry" />
        </mxCell>
        <mxCell id="2bNUJM0Tw6NKzzx5I3rB-27" value="birth_date" style="ellipse;whiteSpace=wrap;html=1;align=center;" vertex="1" parent="1">
          <mxGeometry x="810" y="370" width="80" height="40" as="geometry" />
        </mxCell>
        <mxCell id="2bNUJM0Tw6NKzzx5I3rB-29" value="name" style="ellipse;whiteSpace=wrap;html=1;" vertex="1" parent="1">
          <mxGeometry x="745" y="630" width="60" height="40" as="geometry" />
        </mxCell>
        <mxCell id="2bNUJM0Tw6NKzzx5I3rB-32" value="id" style="ellipse;whiteSpace=wrap;html=1;align=center;fontStyle=4;" vertex="1" parent="1">
          <mxGeometry x="760" y="540" width="50" height="40" as="geometry" />
        </mxCell>
        <mxCell id="2bNUJM0Tw6NKzzx5I3rB-33" value="subcategory" style="ellipse;whiteSpace=wrap;html=1;" vertex="1" parent="1">
          <mxGeometry x="510" y="720" width="90" height="40" as="geometry" />
        </mxCell>
        <mxCell id="2bNUJM0Tw6NKzzx5I3rB-34" value="first_name" style="ellipse;whiteSpace=wrap;html=1;align=center;" vertex="1" parent="1">
          <mxGeometry x="150" y="930" width="80" height="40" as="geometry" />
        </mxCell>
        <mxCell id="2bNUJM0Tw6NKzzx5I3rB-35" value="family_name" style="ellipse;whiteSpace=wrap;html=1;align=center;" vertex="1" parent="1">
          <mxGeometry x="230" y="960" width="80" height="40" as="geometry" />
        </mxCell>
        <mxCell id="2bNUJM0Tw6NKzzx5I3rB-36" value="city" style="ellipse;whiteSpace=wrap;html=1;align=center;" vertex="1" parent="1">
          <mxGeometry x="330" y="970" width="80" height="40" as="geometry" />
        </mxCell>
        <mxCell id="2bNUJM0Tw6NKzzx5I3rB-37" value="birth_date" style="ellipse;whiteSpace=wrap;html=1;align=center;" vertex="1" parent="1">
          <mxGeometry x="405" y="930" width="80" height="40" as="geometry" />
        </mxCell>
        <mxCell id="2bNUJM0Tw6NKzzx5I3rB-38" value="&lt;u&gt;Reader_number&lt;/u&gt;" style="ellipse;whiteSpace=wrap;html=1;align=center;" vertex="1" parent="1">
          <mxGeometry x="470" y="870" width="110" height="40" as="geometry" />
        </mxCell>
        <mxCell id="2bNUJM0Tw6NKzzx5I3rB-40" value="" style="endArrow=none;html=1;rounded=0;entryX=0.5;entryY=0;entryDx=0;entryDy=0;exitX=0.75;exitY=1;exitDx=0;exitDy=0;" edge="1" parent="1" source="2bNUJM0Tw6NKzzx5I3rB-7" target="2bNUJM0Tw6NKzzx5I3rB-43">
          <mxGeometry relative="1" as="geometry">
            <mxPoint x="250" y="300" as="sourcePoint" />
            <mxPoint x="410" y="300" as="targetPoint" />
          </mxGeometry>
        </mxCell>
        <mxCell id="2bNUJM0Tw6NKzzx5I3rB-41" value="1" style="resizable=0;html=1;whiteSpace=wrap;align=left;verticalAlign=bottom;" connectable="0" vertex="1" parent="2bNUJM0Tw6NKzzx5I3rB-40">
          <mxGeometry x="-1" relative="1" as="geometry" />
        </mxCell>
        <mxCell id="2bNUJM0Tw6NKzzx5I3rB-43" value="has" style="rhombus;whiteSpace=wrap;html=1;" vertex="1" parent="1">
          <mxGeometry x="20" y="450" width="100" height="80" as="geometry" />
        </mxCell>
        <mxCell id="2bNUJM0Tw6NKzzx5I3rB-46" value="" style="endArrow=none;html=1;rounded=0;entryX=0.5;entryY=1;entryDx=0;entryDy=0;exitX=0.5;exitY=0;exitDx=0;exitDy=0;" edge="1" parent="1" source="2bNUJM0Tw6NKzzx5I3rB-6" target="2bNUJM0Tw6NKzzx5I3rB-43">
          <mxGeometry relative="1" as="geometry">
            <mxPoint x="140" y="240" as="sourcePoint" />
            <mxPoint x="280" y="170" as="targetPoint" />
          </mxGeometry>
        </mxCell>
        <mxCell id="2bNUJM0Tw6NKzzx5I3rB-47" value="M" style="resizable=0;html=1;whiteSpace=wrap;align=left;verticalAlign=bottom;" connectable="0" vertex="1" parent="2bNUJM0Tw6NKzzx5I3rB-46">
          <mxGeometry x="-1" relative="1" as="geometry" />
        </mxCell>
        <mxCell id="2bNUJM0Tw6NKzzx5I3rB-48" value="" style="resizable=0;html=1;whiteSpace=wrap;align=right;verticalAlign=bottom;" connectable="0" vertex="1" parent="2bNUJM0Tw6NKzzx5I3rB-46">
          <mxGeometry x="1" relative="1" as="geometry" />
        </mxCell>
        <mxCell id="2bNUJM0Tw6NKzzx5I3rB-50" value="" style="endArrow=none;html=1;rounded=0;entryX=0.5;entryY=0;entryDx=0;entryDy=0;exitX=0.456;exitY=0.98;exitDx=0;exitDy=0;exitPerimeter=0;" edge="1" parent="1" source="2bNUJM0Tw6NKzzx5I3rB-6" target="2bNUJM0Tw6NKzzx5I3rB-17">
          <mxGeometry width="50" height="50" relative="1" as="geometry">
            <mxPoint x="-120" y="640" as="sourcePoint" />
            <mxPoint x="-70" y="590" as="targetPoint" />
          </mxGeometry>
        </mxCell>
        <mxCell id="2bNUJM0Tw6NKzzx5I3rB-51" value="" style="endArrow=none;html=1;rounded=0;entryX=0.5;entryY=1;entryDx=0;entryDy=0;" edge="1" parent="1" source="2bNUJM0Tw6NKzzx5I3rB-6" target="2bNUJM0Tw6NKzzx5I3rB-16">
          <mxGeometry width="50" height="50" relative="1" as="geometry">
            <mxPoint x="-10" y="610" as="sourcePoint" />
            <mxPoint x="-78" y="574" as="targetPoint" />
          </mxGeometry>
        </mxCell>
        <mxCell id="2bNUJM0Tw6NKzzx5I3rB-52" value="" style="endArrow=none;html=1;rounded=0;entryX=1;entryY=0;entryDx=0;entryDy=0;exitX=0;exitY=1;exitDx=0;exitDy=0;" edge="1" parent="1" source="2bNUJM0Tw6NKzzx5I3rB-6" target="2bNUJM0Tw6NKzzx5I3rB-19">
          <mxGeometry width="50" height="50" relative="1" as="geometry">
            <mxPoint x="20" y="610" as="sourcePoint" />
            <mxPoint y="540" as="targetPoint" />
          </mxGeometry>
        </mxCell>
        <mxCell id="2bNUJM0Tw6NKzzx5I3rB-53" value="" style="endArrow=none;html=1;rounded=0;entryX=0.5;entryY=1;entryDx=0;entryDy=0;exitX=0.5;exitY=0;exitDx=0;exitDy=0;" edge="1" parent="1" source="2bNUJM0Tw6NKzzx5I3rB-7" target="2bNUJM0Tw6NKzzx5I3rB-10">
          <mxGeometry width="50" height="50" relative="1" as="geometry">
            <mxPoint x="120" y="230" as="sourcePoint" />
            <mxPoint x="170" y="180" as="targetPoint" />
          </mxGeometry>
        </mxCell>
        <mxCell id="2bNUJM0Tw6NKzzx5I3rB-54" value="" style="endArrow=none;html=1;rounded=0;entryX=1;entryY=1;entryDx=0;entryDy=0;exitX=0.25;exitY=0;exitDx=0;exitDy=0;" edge="1" parent="1" source="2bNUJM0Tw6NKzzx5I3rB-7" target="2bNUJM0Tw6NKzzx5I3rB-9">
          <mxGeometry width="50" height="50" relative="1" as="geometry">
            <mxPoint x="80" y="240" as="sourcePoint" />
            <mxPoint x="50" y="180" as="targetPoint" />
          </mxGeometry>
        </mxCell>
        <mxCell id="2bNUJM0Tw6NKzzx5I3rB-55" value="" style="endArrow=none;html=1;rounded=0;entryX=1;entryY=0.5;entryDx=0;entryDy=0;exitX=0;exitY=0.25;exitDx=0;exitDy=0;" edge="1" parent="1" source="2bNUJM0Tw6NKzzx5I3rB-7" target="2bNUJM0Tw6NKzzx5I3rB-13">
          <mxGeometry width="50" height="50" relative="1" as="geometry">
            <mxPoint x="50" y="240" as="sourcePoint" />
            <mxPoint x="-9" y="204" as="targetPoint" />
          </mxGeometry>
        </mxCell>
        <mxCell id="2bNUJM0Tw6NKzzx5I3rB-56" value="" style="endArrow=none;html=1;rounded=0;entryX=1;entryY=0;entryDx=0;entryDy=0;exitX=0;exitY=0.5;exitDx=0;exitDy=0;" edge="1" parent="1" source="2bNUJM0Tw6NKzzx5I3rB-7" target="2bNUJM0Tw6NKzzx5I3rB-14">
          <mxGeometry width="50" height="50" relative="1" as="geometry">
            <mxPoint x="20" y="255" as="sourcePoint" />
            <mxPoint x="-40" y="240" as="targetPoint" />
          </mxGeometry>
        </mxCell>
        <mxCell id="2bNUJM0Tw6NKzzx5I3rB-57" value="" style="endArrow=none;html=1;rounded=0;entryX=1;entryY=0;entryDx=0;entryDy=0;exitX=0;exitY=1;exitDx=0;exitDy=0;" edge="1" parent="1" source="2bNUJM0Tw6NKzzx5I3rB-7" target="2bNUJM0Tw6NKzzx5I3rB-15">
          <mxGeometry width="50" height="50" relative="1" as="geometry">
            <mxPoint x="20" y="270" as="sourcePoint" />
            <mxPoint x="-15" y="286" as="targetPoint" />
          </mxGeometry>
        </mxCell>
        <mxCell id="2bNUJM0Tw6NKzzx5I3rB-58" value="" style="endArrow=none;html=1;rounded=0;entryX=0.5;entryY=0;entryDx=0;entryDy=0;exitX=0.5;exitY=1;exitDx=0;exitDy=0;" edge="1" parent="1" source="2bNUJM0Tw6NKzzx5I3rB-7" target="2bNUJM0Tw6NKzzx5I3rB-12">
          <mxGeometry width="50" height="50" relative="1" as="geometry">
            <mxPoint x="20" y="300" as="sourcePoint" />
            <mxPoint x="21" y="346" as="targetPoint" />
            <Array as="points">
              <mxPoint x="70" y="320" />
            </Array>
          </mxGeometry>
        </mxCell>
        <mxCell id="2bNUJM0Tw6NKzzx5I3rB-59" value="family_name" style="ellipse;whiteSpace=wrap;html=1;align=center;" vertex="1" parent="1">
          <mxGeometry x="825" y="310" width="80" height="40" as="geometry" />
        </mxCell>
        <mxCell id="2bNUJM0Tw6NKzzx5I3rB-60" value="have" style="rhombus;whiteSpace=wrap;html=1;" vertex="1" parent="1">
          <mxGeometry x="325" y="290" width="100" height="80" as="geometry" />
        </mxCell>
        <mxCell id="2bNUJM0Tw6NKzzx5I3rB-61" value="" style="endArrow=none;html=1;rounded=0;entryX=1;entryY=0.5;entryDx=0;entryDy=0;exitX=0;exitY=0.5;exitDx=0;exitDy=0;" edge="1" parent="1" source="2bNUJM0Tw6NKzzx5I3rB-4" target="2bNUJM0Tw6NKzzx5I3rB-60">
          <mxGeometry relative="1" as="geometry">
            <mxPoint x="140" y="240" as="sourcePoint" />
            <mxPoint x="310" y="190" as="targetPoint" />
          </mxGeometry>
        </mxCell>
        <mxCell id="2bNUJM0Tw6NKzzx5I3rB-62" value="1" style="resizable=0;html=1;whiteSpace=wrap;align=left;verticalAlign=bottom;" connectable="0" vertex="1" parent="2bNUJM0Tw6NKzzx5I3rB-61">
          <mxGeometry x="-1" relative="1" as="geometry">
            <mxPoint x="-10" as="offset" />
          </mxGeometry>
        </mxCell>
        <mxCell id="2bNUJM0Tw6NKzzx5I3rB-64" value="" style="endArrow=none;html=1;rounded=0;entryX=0;entryY=0.5;entryDx=0;entryDy=0;exitX=1;exitY=1;exitDx=0;exitDy=0;" edge="1" parent="1" source="2bNUJM0Tw6NKzzx5I3rB-7" target="2bNUJM0Tw6NKzzx5I3rB-60">
          <mxGeometry relative="1" as="geometry">
            <mxPoint x="410" y="10" as="sourcePoint" />
            <mxPoint x="310" y="110" as="targetPoint" />
          </mxGeometry>
        </mxCell>
        <mxCell id="2bNUJM0Tw6NKzzx5I3rB-65" value="M" style="resizable=0;html=1;whiteSpace=wrap;align=left;verticalAlign=bottom;" connectable="0" vertex="1" parent="2bNUJM0Tw6NKzzx5I3rB-64">
          <mxGeometry x="-1" relative="1" as="geometry" />
        </mxCell>
        <mxCell id="2bNUJM0Tw6NKzzx5I3rB-66" value="" style="resizable=0;html=1;whiteSpace=wrap;align=right;verticalAlign=bottom;" connectable="0" vertex="1" parent="2bNUJM0Tw6NKzzx5I3rB-64">
          <mxGeometry x="1" relative="1" as="geometry" />
        </mxCell>
        <mxCell id="2bNUJM0Tw6NKzzx5I3rB-70" value="&lt;span style=&quot;border-bottom: 1px dotted&quot;&gt;author_id&lt;/span&gt;" style="ellipse;whiteSpace=wrap;html=1;align=center;" vertex="1" parent="1">
          <mxGeometry x="140" y="140" width="80" height="30" as="geometry" />
        </mxCell>
        <mxCell id="2bNUJM0Tw6NKzzx5I3rB-71" value="" style="endArrow=none;html=1;rounded=0;entryX=0;entryY=1;entryDx=0;entryDy=0;exitX=0.75;exitY=0;exitDx=0;exitDy=0;" edge="1" parent="1" source="2bNUJM0Tw6NKzzx5I3rB-7" target="2bNUJM0Tw6NKzzx5I3rB-70">
          <mxGeometry width="50" height="50" relative="1" as="geometry">
            <mxPoint x="80" y="300" as="sourcePoint" />
            <mxPoint x="70" y="350" as="targetPoint" />
            <Array as="points">
              <mxPoint x="120" y="200" />
            </Array>
          </mxGeometry>
        </mxCell>
        <mxCell id="2bNUJM0Tw6NKzzx5I3rB-73" value="have" style="rhombus;whiteSpace=wrap;html=1;" vertex="1" parent="1">
          <mxGeometry x="340" y="180" width="100" height="80" as="geometry" />
        </mxCell>
        <mxCell id="2bNUJM0Tw6NKzzx5I3rB-74" value="" style="endArrow=none;html=1;rounded=0;entryX=0;entryY=0.5;entryDx=0;entryDy=0;exitX=1;exitY=0.5;exitDx=0;exitDy=0;" edge="1" parent="1" source="2bNUJM0Tw6NKzzx5I3rB-7" target="2bNUJM0Tw6NKzzx5I3rB-73">
          <mxGeometry relative="1" as="geometry">
            <mxPoint x="140" y="300" as="sourcePoint" />
            <mxPoint x="335" y="340" as="targetPoint" />
          </mxGeometry>
        </mxCell>
        <mxCell id="2bNUJM0Tw6NKzzx5I3rB-75" value="M" style="resizable=0;html=1;whiteSpace=wrap;align=left;verticalAlign=bottom;" connectable="0" vertex="1" parent="2bNUJM0Tw6NKzzx5I3rB-74">
          <mxGeometry x="-1" relative="1" as="geometry" />
        </mxCell>
        <mxCell id="2bNUJM0Tw6NKzzx5I3rB-76" value="" style="resizable=0;html=1;whiteSpace=wrap;align=right;verticalAlign=bottom;" connectable="0" vertex="1" parent="2bNUJM0Tw6NKzzx5I3rB-74">
          <mxGeometry x="1" relative="1" as="geometry" />
        </mxCell>
        <mxCell id="2bNUJM0Tw6NKzzx5I3rB-77" value="" style="endArrow=none;html=1;rounded=0;entryX=1;entryY=0.5;entryDx=0;entryDy=0;exitX=0;exitY=0.5;exitDx=0;exitDy=0;" edge="1" parent="1" source="2bNUJM0Tw6NKzzx5I3rB-5" target="2bNUJM0Tw6NKzzx5I3rB-73">
          <mxGeometry relative="1" as="geometry">
            <mxPoint x="660" y="340" as="sourcePoint" />
            <mxPoint x="435" y="340" as="targetPoint" />
          </mxGeometry>
        </mxCell>
        <mxCell id="2bNUJM0Tw6NKzzx5I3rB-78" value="1" style="resizable=0;html=1;whiteSpace=wrap;align=left;verticalAlign=bottom;" connectable="0" vertex="1" parent="2bNUJM0Tw6NKzzx5I3rB-77">
          <mxGeometry x="-1" relative="1" as="geometry" />
        </mxCell>
        <mxCell id="2bNUJM0Tw6NKzzx5I3rB-81" value="" style="endArrow=none;html=1;rounded=0;exitX=0;exitY=0.5;exitDx=0;exitDy=0;entryX=1;entryY=1;entryDx=0;entryDy=0;" edge="1" parent="1" source="2bNUJM0Tw6NKzzx5I3rB-29" target="2bNUJM0Tw6NKzzx5I3rB-3">
          <mxGeometry width="50" height="50" relative="1" as="geometry">
            <mxPoint x="555" y="630" as="sourcePoint" />
            <mxPoint x="580" y="600" as="targetPoint" />
          </mxGeometry>
        </mxCell>
        <mxCell id="2bNUJM0Tw6NKzzx5I3rB-82" value="" style="endArrow=none;html=1;rounded=0;exitX=0;exitY=0.5;exitDx=0;exitDy=0;entryX=1;entryY=0.75;entryDx=0;entryDy=0;" edge="1" parent="1" source="2bNUJM0Tw6NKzzx5I3rB-32" target="2bNUJM0Tw6NKzzx5I3rB-3">
          <mxGeometry width="50" height="50" relative="1" as="geometry">
            <mxPoint x="660" y="610" as="sourcePoint" />
            <mxPoint x="640" y="580" as="targetPoint" />
          </mxGeometry>
        </mxCell>
        <mxCell id="2bNUJM0Tw6NKzzx5I3rB-84" value="Relationship" style="shape=rhombus;perimeter=rhombusPerimeter;whiteSpace=wrap;html=1;align=center;" vertex="1" parent="1">
          <mxGeometry x="450" y="620" width="100" height="60" as="geometry" />
        </mxCell>
        <mxCell id="2bNUJM0Tw6NKzzx5I3rB-85" value="" style="endArrow=none;html=1;rounded=0;entryX=0;entryY=1;entryDx=0;entryDy=0;exitX=0.5;exitY=0;exitDx=0;exitDy=0;" edge="1" parent="1" source="2bNUJM0Tw6NKzzx5I3rB-84" target="2bNUJM0Tw6NKzzx5I3rB-3">
          <mxGeometry width="50" height="50" relative="1" as="geometry">
            <mxPoint x="430" y="620" as="sourcePoint" />
            <mxPoint x="480" y="570" as="targetPoint" />
          </mxGeometry>
        </mxCell>
        <mxCell id="2bNUJM0Tw6NKzzx5I3rB-86" value="" style="endArrow=none;html=1;rounded=0;entryX=0.5;entryY=1;entryDx=0;entryDy=0;exitX=1;exitY=0.5;exitDx=0;exitDy=0;" edge="1" parent="1" source="2bNUJM0Tw6NKzzx5I3rB-84" target="2bNUJM0Tw6NKzzx5I3rB-3">
          <mxGeometry width="50" height="50" relative="1" as="geometry">
            <mxPoint x="510" y="630" as="sourcePoint" />
            <mxPoint x="520" y="580" as="targetPoint" />
          </mxGeometry>
        </mxCell>
        <mxCell id="2bNUJM0Tw6NKzzx5I3rB-87" value="" style="endArrow=none;html=1;rounded=0;entryX=0.5;entryY=1;entryDx=0;entryDy=0;exitX=0.5;exitY=0;exitDx=0;exitDy=0;" edge="1" parent="1" source="2bNUJM0Tw6NKzzx5I3rB-33" target="2bNUJM0Tw6NKzzx5I3rB-84">
          <mxGeometry width="50" height="50" relative="1" as="geometry">
            <mxPoint x="560" y="660" as="sourcePoint" />
            <mxPoint x="580" y="580" as="targetPoint" />
          </mxGeometry>
        </mxCell>
        <mxCell id="2bNUJM0Tw6NKzzx5I3rB-88" value="1" style="text;strokeColor=none;fillColor=none;align=left;verticalAlign=middle;spacingLeft=4;spacingRight=4;overflow=hidden;points=[[0,0.5],[1,0.5]];portConstraint=eastwest;rotatable=0;whiteSpace=wrap;html=1;" vertex="1" parent="1">
          <mxGeometry x="490" y="560" width="20" height="20" as="geometry" />
        </mxCell>
        <mxCell id="2bNUJM0Tw6NKzzx5I3rB-90" value="1" style="text;strokeColor=none;fillColor=none;align=left;verticalAlign=middle;spacingLeft=4;spacingRight=4;overflow=hidden;points=[[0,0.5],[1,0.5]];portConstraint=eastwest;rotatable=0;whiteSpace=wrap;html=1;" vertex="1" parent="1">
          <mxGeometry x="550" y="570" width="20" height="20" as="geometry" />
        </mxCell>
        <mxCell id="2bNUJM0Tw6NKzzx5I3rB-91" value="" style="endArrow=none;html=1;rounded=0;exitX=0;exitY=0;exitDx=0;exitDy=0;entryX=0.5;entryY=1;entryDx=0;entryDy=0;" edge="1" parent="1" source="2bNUJM0Tw6NKzzx5I3rB-25" target="2bNUJM0Tw6NKzzx5I3rB-4">
          <mxGeometry width="50" height="50" relative="1" as="geometry">
            <mxPoint x="800" y="405" as="sourcePoint" />
            <mxPoint x="670" y="400" as="targetPoint" />
          </mxGeometry>
        </mxCell>
        <mxCell id="2bNUJM0Tw6NKzzx5I3rB-92" value="" style="endArrow=none;html=1;rounded=0;exitX=0;exitY=0.5;exitDx=0;exitDy=0;entryX=0.95;entryY=1.017;entryDx=0;entryDy=0;entryPerimeter=0;" edge="1" parent="1" source="2bNUJM0Tw6NKzzx5I3rB-27" target="2bNUJM0Tw6NKzzx5I3rB-4">
          <mxGeometry width="50" height="50" relative="1" as="geometry">
            <mxPoint x="782" y="436" as="sourcePoint" />
            <mxPoint x="720" y="370" as="targetPoint" />
          </mxGeometry>
        </mxCell>
        <mxCell id="2bNUJM0Tw6NKzzx5I3rB-93" value="" style="endArrow=none;html=1;rounded=0;exitX=0;exitY=0.5;exitDx=0;exitDy=0;entryX=1;entryY=0.5;entryDx=0;entryDy=0;" edge="1" parent="1" source="2bNUJM0Tw6NKzzx5I3rB-59" target="2bNUJM0Tw6NKzzx5I3rB-4">
          <mxGeometry width="50" height="50" relative="1" as="geometry">
            <mxPoint x="820" y="400" as="sourcePoint" />
            <mxPoint x="774" y="371" as="targetPoint" />
          </mxGeometry>
        </mxCell>
        <mxCell id="2bNUJM0Tw6NKzzx5I3rB-94" value="" style="endArrow=none;html=1;rounded=0;exitX=0;exitY=0.5;exitDx=0;exitDy=0;entryX=1;entryY=0;entryDx=0;entryDy=0;" edge="1" parent="1" source="2bNUJM0Tw6NKzzx5I3rB-24" target="2bNUJM0Tw6NKzzx5I3rB-4">
          <mxGeometry width="50" height="50" relative="1" as="geometry">
            <mxPoint x="835" y="340" as="sourcePoint" />
            <mxPoint x="780" y="340" as="targetPoint" />
          </mxGeometry>
        </mxCell>
        <mxCell id="2bNUJM0Tw6NKzzx5I3rB-96" value="" style="endArrow=none;html=1;rounded=0;entryX=0;entryY=0.5;entryDx=0;entryDy=0;exitX=1;exitY=0.5;exitDx=0;exitDy=0;" edge="1" parent="1" source="2bNUJM0Tw6NKzzx5I3rB-6" target="2bNUJM0Tw6NKzzx5I3rB-113">
          <mxGeometry relative="1" as="geometry">
            <mxPoint y="690" as="sourcePoint" />
            <mxPoint x="120" y="750" as="targetPoint" />
          </mxGeometry>
        </mxCell>
        <mxCell id="2bNUJM0Tw6NKzzx5I3rB-97" value="M" style="resizable=0;html=1;whiteSpace=wrap;align=left;verticalAlign=bottom;" connectable="0" vertex="1" parent="2bNUJM0Tw6NKzzx5I3rB-96">
          <mxGeometry x="-1" relative="1" as="geometry" />
        </mxCell>
        <mxCell id="2bNUJM0Tw6NKzzx5I3rB-98" value="" style="resizable=0;html=1;whiteSpace=wrap;align=right;verticalAlign=bottom;" connectable="0" vertex="1" parent="2bNUJM0Tw6NKzzx5I3rB-96">
          <mxGeometry x="1" relative="1" as="geometry" />
        </mxCell>
        <mxCell id="2bNUJM0Tw6NKzzx5I3rB-99" value="" style="endArrow=none;html=1;rounded=0;entryX=0;entryY=0;entryDx=0;entryDy=0;exitX=1;exitY=0.5;exitDx=0;exitDy=0;" edge="1" parent="1" source="2bNUJM0Tw6NKzzx5I3rB-113" target="2bNUJM0Tw6NKzzx5I3rB-2">
          <mxGeometry relative="1" as="geometry">
            <mxPoint x="195" y="770" as="sourcePoint" />
            <mxPoint x="130" y="760" as="targetPoint" />
          </mxGeometry>
        </mxCell>
        <mxCell id="2bNUJM0Tw6NKzzx5I3rB-100" value="M" style="resizable=0;html=1;whiteSpace=wrap;align=left;verticalAlign=bottom;" connectable="0" vertex="1" parent="2bNUJM0Tw6NKzzx5I3rB-99">
          <mxGeometry x="-1" relative="1" as="geometry">
            <mxPoint x="50" y="90" as="offset" />
          </mxGeometry>
        </mxCell>
        <mxCell id="2bNUJM0Tw6NKzzx5I3rB-101" value="" style="resizable=0;html=1;whiteSpace=wrap;align=right;verticalAlign=bottom;" connectable="0" vertex="1" parent="2bNUJM0Tw6NKzzx5I3rB-99">
          <mxGeometry x="1" relative="1" as="geometry" />
        </mxCell>
        <mxCell id="2bNUJM0Tw6NKzzx5I3rB-102" value="&lt;span style=&quot;border-bottom: 1px dotted&quot;&gt;reader_id&lt;/span&gt;" style="ellipse;whiteSpace=wrap;html=1;align=center;" vertex="1" parent="1">
          <mxGeometry x="300" y="680" width="100" height="40" as="geometry" />
        </mxCell>
        <mxCell id="2bNUJM0Tw6NKzzx5I3rB-103" value="" style="endArrow=none;html=1;rounded=0;entryX=0;entryY=0.5;entryDx=0;entryDy=0;exitX=0.75;exitY=0;exitDx=0;exitDy=0;" edge="1" parent="1" source="2bNUJM0Tw6NKzzx5I3rB-113" target="2bNUJM0Tw6NKzzx5I3rB-102">
          <mxGeometry width="50" height="50" relative="1" as="geometry">
            <mxPoint x="-5" y="749" as="sourcePoint" />
            <mxPoint x="-70" y="820" as="targetPoint" />
          </mxGeometry>
        </mxCell>
        <mxCell id="2bNUJM0Tw6NKzzx5I3rB-104" value="" style="endArrow=none;html=1;rounded=0;entryX=1;entryY=0;entryDx=0;entryDy=0;exitX=0;exitY=1;exitDx=0;exitDy=0;" edge="1" parent="1" source="2bNUJM0Tw6NKzzx5I3rB-2" target="2bNUJM0Tw6NKzzx5I3rB-34">
          <mxGeometry width="50" height="50" relative="1" as="geometry">
            <mxPoint x="210" y="840" as="sourcePoint" />
            <mxPoint x="250" y="910" as="targetPoint" />
          </mxGeometry>
        </mxCell>
        <mxCell id="2bNUJM0Tw6NKzzx5I3rB-105" value="" style="endArrow=none;html=1;rounded=0;entryX=0.5;entryY=0;entryDx=0;entryDy=0;exitX=0.25;exitY=1;exitDx=0;exitDy=0;" edge="1" parent="1" source="2bNUJM0Tw6NKzzx5I3rB-2" target="2bNUJM0Tw6NKzzx5I3rB-35">
          <mxGeometry width="50" height="50" relative="1" as="geometry">
            <mxPoint x="300" y="920" as="sourcePoint" />
            <mxPoint x="228" y="946" as="targetPoint" />
          </mxGeometry>
        </mxCell>
        <mxCell id="2bNUJM0Tw6NKzzx5I3rB-106" value="" style="endArrow=none;html=1;rounded=0;entryX=0.5;entryY=0;entryDx=0;entryDy=0;exitX=0.5;exitY=1;exitDx=0;exitDy=0;" edge="1" parent="1" source="2bNUJM0Tw6NKzzx5I3rB-2" target="2bNUJM0Tw6NKzzx5I3rB-36">
          <mxGeometry width="50" height="50" relative="1" as="geometry">
            <mxPoint x="330" y="920" as="sourcePoint" />
            <mxPoint x="280" y="970" as="targetPoint" />
          </mxGeometry>
        </mxCell>
        <mxCell id="2bNUJM0Tw6NKzzx5I3rB-107" value="" style="endArrow=none;html=1;rounded=0;entryX=0;entryY=0.5;entryDx=0;entryDy=0;exitX=0.75;exitY=1;exitDx=0;exitDy=0;" edge="1" parent="1" source="2bNUJM0Tw6NKzzx5I3rB-2" target="2bNUJM0Tw6NKzzx5I3rB-37">
          <mxGeometry width="50" height="50" relative="1" as="geometry">
            <mxPoint x="360" y="920" as="sourcePoint" />
            <mxPoint x="380" y="980" as="targetPoint" />
          </mxGeometry>
        </mxCell>
        <mxCell id="2bNUJM0Tw6NKzzx5I3rB-108" value="" style="endArrow=none;html=1;rounded=0;entryX=0;entryY=0.5;entryDx=0;entryDy=0;exitX=1;exitY=0.75;exitDx=0;exitDy=0;" edge="1" parent="1" source="2bNUJM0Tw6NKzzx5I3rB-2" target="2bNUJM0Tw6NKzzx5I3rB-38">
          <mxGeometry width="50" height="50" relative="1" as="geometry">
            <mxPoint x="390" y="920" as="sourcePoint" />
            <mxPoint x="415" y="960" as="targetPoint" />
          </mxGeometry>
        </mxCell>
        <mxCell id="2bNUJM0Tw6NKzzx5I3rB-110" value="return_date" style="ellipse;whiteSpace=wrap;html=1;" vertex="1" parent="1">
          <mxGeometry x="160" y="640" width="120" height="40" as="geometry" />
        </mxCell>
        <mxCell id="2bNUJM0Tw6NKzzx5I3rB-111" value="" style="endArrow=none;html=1;rounded=0;exitX=0.5;exitY=1;exitDx=0;exitDy=0;entryX=0.5;entryY=0;entryDx=0;entryDy=0;" edge="1" parent="1" source="2bNUJM0Tw6NKzzx5I3rB-110" target="2bNUJM0Tw6NKzzx5I3rB-113">
          <mxGeometry width="50" height="50" relative="1" as="geometry">
            <mxPoint x="30" y="750" as="sourcePoint" />
            <mxPoint x="50" y="680" as="targetPoint" />
          </mxGeometry>
        </mxCell>
        <mxCell id="2bNUJM0Tw6NKzzx5I3rB-113" value="borrow" style="shape=associativeEntity;whiteSpace=wrap;html=1;align=center;" vertex="1" parent="1">
          <mxGeometry x="110" y="720" width="140" height="60" as="geometry" />
        </mxCell>
        <mxCell id="2bNUJM0Tw6NKzzx5I3rB-114" value="&lt;span style=&quot;border-bottom: 1px dotted&quot;&gt;copy_id&lt;/span&gt;" style="ellipse;whiteSpace=wrap;html=1;align=center;" vertex="1" parent="1">
          <mxGeometry x="310" y="740" width="100" height="40" as="geometry" />
        </mxCell>
        <mxCell id="2bNUJM0Tw6NKzzx5I3rB-115" value="" style="endArrow=none;html=1;rounded=0;entryX=0;entryY=0.5;entryDx=0;entryDy=0;exitX=1;exitY=0.5;exitDx=0;exitDy=0;" edge="1" parent="1" source="2bNUJM0Tw6NKzzx5I3rB-113" target="2bNUJM0Tw6NKzzx5I3rB-114">
          <mxGeometry width="50" height="50" relative="1" as="geometry">
            <mxPoint x="225" y="730" as="sourcePoint" />
            <mxPoint x="310" y="710" as="targetPoint" />
          </mxGeometry>
        </mxCell>
        <mxCell id="2bNUJM0Tw6NKzzx5I3rB-117" value="Associative&#xa;Entity" style="shape=associativeEntity;whiteSpace=wrap;html=1;align=center;" vertex="1" parent="1">
          <mxGeometry x="210" y="420" width="140" height="60" as="geometry" />
        </mxCell>
        <mxCell id="2bNUJM0Tw6NKzzx5I3rB-118" value="" style="endArrow=none;html=1;rounded=0;entryX=0;entryY=0;entryDx=0;entryDy=0;exitX=0.846;exitY=0.973;exitDx=0;exitDy=0;exitPerimeter=0;" edge="1" parent="1" source="2bNUJM0Tw6NKzzx5I3rB-7" target="2bNUJM0Tw6NKzzx5I3rB-117">
          <mxGeometry relative="1" as="geometry">
            <mxPoint x="140" y="300" as="sourcePoint" />
            <mxPoint x="335" y="340" as="targetPoint" />
          </mxGeometry>
        </mxCell>
        <mxCell id="2bNUJM0Tw6NKzzx5I3rB-119" value="M" style="resizable=0;html=1;whiteSpace=wrap;align=left;verticalAlign=bottom;" connectable="0" vertex="1" parent="2bNUJM0Tw6NKzzx5I3rB-118">
          <mxGeometry x="-1" relative="1" as="geometry" />
        </mxCell>
        <mxCell id="2bNUJM0Tw6NKzzx5I3rB-120" value="" style="resizable=0;html=1;whiteSpace=wrap;align=right;verticalAlign=bottom;" connectable="0" vertex="1" parent="2bNUJM0Tw6NKzzx5I3rB-118">
          <mxGeometry x="1" relative="1" as="geometry" />
        </mxCell>
        <mxCell id="2bNUJM0Tw6NKzzx5I3rB-121" value="" style="endArrow=none;html=1;rounded=0;entryX=0;entryY=0;entryDx=0;entryDy=0;exitX=1;exitY=1;exitDx=0;exitDy=0;" edge="1" parent="1" source="2bNUJM0Tw6NKzzx5I3rB-117" target="2bNUJM0Tw6NKzzx5I3rB-3">
          <mxGeometry relative="1" as="geometry">
            <mxPoint x="122" y="298" as="sourcePoint" />
            <mxPoint x="250" y="420" as="targetPoint" />
          </mxGeometry>
        </mxCell>
        <mxCell id="2bNUJM0Tw6NKzzx5I3rB-122" value="M" style="resizable=0;html=1;whiteSpace=wrap;align=left;verticalAlign=bottom;" connectable="0" vertex="1" parent="2bNUJM0Tw6NKzzx5I3rB-121">
          <mxGeometry x="-1" relative="1" as="geometry">
            <mxPoint x="120" y="40" as="offset" />
          </mxGeometry>
        </mxCell>
        <mxCell id="2bNUJM0Tw6NKzzx5I3rB-123" value="" style="resizable=0;html=1;whiteSpace=wrap;align=right;verticalAlign=bottom;" connectable="0" vertex="1" parent="2bNUJM0Tw6NKzzx5I3rB-121">
          <mxGeometry x="1" relative="1" as="geometry" />
        </mxCell>
        <mxCell id="2bNUJM0Tw6NKzzx5I3rB-124" value="&lt;span style=&quot;border-bottom: 1px dotted&quot;&gt;ISBN&lt;/span&gt;" style="ellipse;whiteSpace=wrap;html=1;align=center;" vertex="1" parent="1">
          <mxGeometry x="180" y="525" width="80" height="30" as="geometry" />
        </mxCell>
        <mxCell id="2bNUJM0Tw6NKzzx5I3rB-125" value="&lt;span style=&quot;border-bottom: 1px dotted&quot;&gt;category_id&lt;/span&gt;" style="ellipse;whiteSpace=wrap;html=1;align=center;" vertex="1" parent="1">
          <mxGeometry x="270" y="520" width="80" height="30" as="geometry" />
        </mxCell>
        <mxCell id="2bNUJM0Tw6NKzzx5I3rB-126" value="" style="endArrow=none;html=1;rounded=0;exitX=0.25;exitY=1;exitDx=0;exitDy=0;entryX=0.5;entryY=0;entryDx=0;entryDy=0;" edge="1" parent="1" source="2bNUJM0Tw6NKzzx5I3rB-117" target="2bNUJM0Tw6NKzzx5I3rB-124">
          <mxGeometry width="50" height="50" relative="1" as="geometry">
            <mxPoint x="160" y="560" as="sourcePoint" />
            <mxPoint x="210" y="510" as="targetPoint" />
          </mxGeometry>
        </mxCell>
        <mxCell id="2bNUJM0Tw6NKzzx5I3rB-127" value="" style="endArrow=none;html=1;rounded=0;exitX=0.5;exitY=1;exitDx=0;exitDy=0;entryX=0.5;entryY=0;entryDx=0;entryDy=0;" edge="1" parent="1" source="2bNUJM0Tw6NKzzx5I3rB-117" target="2bNUJM0Tw6NKzzx5I3rB-125">
          <mxGeometry width="50" height="50" relative="1" as="geometry">
            <mxPoint x="255" y="490" as="sourcePoint" />
            <mxPoint x="230" y="520" as="targetPoint" />
          </mxGeometry>
        </mxCell>
      </root>
    </mxGraphModel>
  </diagram>
</mxfile>
